<svg width="27" height="24" viewBox="0 0 27 24" fill="none" xmlns="http://www.w3.org/2000/svg">
<g clip-path="url(#clip0_1905_223)">
<path d="M26.1097 5.46875C26.5264 6.0625 26.6201 6.73438 26.391 7.48438L22.0941 21.6406C21.8962 22.3073 21.4977 22.8672 20.8988 23.3203C20.2998 23.7734 19.6618 24 18.9847 24H4.56284C3.76076 24 2.98732 23.7214 2.24253 23.1641C1.49774 22.6068 0.979506 21.9219 0.68784 21.1094C0.43784 20.4115 0.427423 19.75 0.65659 19.125C0.65659 19.0833 0.672215 18.9427 0.703465 18.7031C0.734715 18.4635 0.755548 18.2708 0.765965 18.125C0.776381 18.0417 0.760756 17.9297 0.71909 17.7891C0.677423 17.6484 0.661798 17.5469 0.672215 17.4844C0.693048 17.3698 0.734715 17.2604 0.797215 17.1562C0.859715 17.0521 0.945652 16.9297 1.05503 16.7891C1.1644 16.6484 1.25034 16.526 1.31284 16.4219C1.55242 16.026 1.7868 15.5495 2.01596 14.9922C2.24513 14.4349 2.40138 13.9583 2.48471 13.5625C2.51596 13.4583 2.51857 13.3021 2.49253 13.0938C2.46649 12.8854 2.46388 12.7396 2.48471 12.6562C2.51596 12.5417 2.60451 12.3958 2.75034 12.2188C2.89617 12.0417 2.98471 11.9219 3.01596 11.8594C3.23471 11.4844 3.45346 11.0052 3.67221 10.4219C3.89096 9.83854 4.02117 9.36979 4.06284 9.01562C4.07326 8.92188 4.06024 8.75521 4.02378 8.51562C3.98732 8.27604 3.98992 8.13021 4.03159 8.07812C4.07326 7.94271 4.18784 7.78385 4.37534 7.60156C4.56284 7.41927 4.67742 7.30208 4.71909 7.25C4.91701 6.97917 5.13836 6.53906 5.38315 5.92969C5.62794 5.32031 5.77117 4.81771 5.81284 4.42188C5.82326 4.33854 5.80763 4.20573 5.76596 4.02344C5.7243 3.84115 5.71388 3.70312 5.73471 3.60938C5.75555 3.52604 5.80242 3.43229 5.87534 3.32812C5.94826 3.22396 6.04201 3.10417 6.15659 2.96875C6.27117 2.83333 6.35971 2.72396 6.42221 2.64062C6.50555 2.51562 6.59149 2.35677 6.68003 2.16406C6.76857 1.97135 6.84669 1.78906 6.9144 1.61719C6.98211 1.44531 7.06544 1.25781 7.1644 1.05469C7.26336 0.851562 7.36492 0.684896 7.46909 0.554688C7.57326 0.424479 7.71128 0.302083 7.88315 0.1875C8.05503 0.0729167 8.24253 0.0130208 8.44565 0.0078125C8.64878 0.00260417 8.89617 0.03125 9.18784 0.09375L9.17221 0.140625C9.56805 0.046875 9.83367 0 9.96909 0H21.8597C22.6305 0 23.2243 0.291667 23.641 0.875C24.0576 1.45833 24.1514 2.13542 23.9222 2.90625L19.641 17.0625C19.266 18.3021 18.8936 19.1016 18.5238 19.4609C18.154 19.8203 17.4847 20 16.516 20H2.93784C2.65659 20 2.45867 20.0781 2.34409 20.2344C2.22951 20.401 2.2243 20.625 2.32846 20.9062C2.57846 21.6354 3.32846 22 4.57846 22H19.0003C19.3024 22 19.5941 21.9193 19.8753 21.7578C20.1566 21.5964 20.3389 21.3802 20.4222 21.1094L25.1097 5.6875C25.1826 5.45833 25.2087 5.16146 25.1878 4.79688C25.5837 4.95312 25.891 5.17708 26.1097 5.46875ZM9.48471 5.5C9.44305 5.63542 9.45346 5.7526 9.51596 5.85156C9.57846 5.95052 9.68263 6 9.82846 6H19.3285C19.4639 6 19.5967 5.95052 19.7269 5.85156C19.8571 5.7526 19.943 5.63542 19.9847 5.5L20.3128 4.5C20.3545 4.36458 20.3441 4.2474 20.2816 4.14844C20.2191 4.04948 20.1149 4 19.9691 4H10.4691C10.3337 4 10.2009 4.04948 10.0707 4.14844C9.94044 4.2474 9.85451 4.36458 9.81284 4.5L9.48471 5.5ZM8.18784 9.5C8.14617 9.63542 8.15659 9.7526 8.21909 9.85156C8.28159 9.95052 8.38576 10 8.53159 10H18.0316C18.167 10 18.2998 9.95052 18.43 9.85156C18.5602 9.7526 18.6462 9.63542 18.6878 9.5L19.016 8.5C19.0576 8.36458 19.0472 8.2474 18.9847 8.14844C18.9222 8.04948 18.818 8 18.6722 8H9.17221C9.0368 8 8.90399 8.04948 8.77378 8.14844C8.64357 8.2474 8.55763 8.36458 8.51596 8.5L8.18784 9.5Z" fill="white"/>
</g>
<defs>
<clipPath id="clip0_1905_223">
<rect width="26.5" height="24" fill="white"/>
</clipPath>
</defs>
</svg>
