<svg width="24" height="24" viewBox="0 0 24 24" fill="none" xmlns="http://www.w3.org/2000/svg">
<rect width="24" height="24" fill="#0270F0"/>
<mask id="mask0_1005_8349" style="mask-type:alpha" maskUnits="userSpaceOnUse" x="4" y="4" width="16" height="16">
<rect x="4" y="4" width="16" height="16" fill="#D9D9D9"/>
</mask>
<g mask="url(#mask0_1005_8349)">
<path d="M9.60016 15.332L12.0002 12.932L14.4002 15.332L15.3335 14.3987L12.9335 11.9987L15.3335 9.5987L14.4002 8.66536L12.0002 11.0654L9.60016 8.66536L8.66683 9.5987L11.0668 11.9987L8.66683 14.3987L9.60016 15.332ZM12.0002 18.6654C11.0779 18.6654 10.2113 18.4904 9.40016 18.1404C8.58905 17.7904 7.8835 17.3154 7.2835 16.7154C6.6835 16.1154 6.2085 15.4098 5.8585 14.5987C5.5085 13.7876 5.3335 12.9209 5.3335 11.9987C5.3335 11.0765 5.5085 10.2098 5.8585 9.3987C6.2085 8.58759 6.6835 7.88203 7.2835 7.28203C7.8835 6.68203 8.58905 6.20703 9.40016 5.85703C10.2113 5.50703 11.0779 5.33203 12.0002 5.33203C12.9224 5.33203 13.7891 5.50703 14.6002 5.85703C15.4113 6.20703 16.1168 6.68203 16.7168 7.28203C17.3168 7.88203 17.7918 8.58759 18.1418 9.3987C18.4918 10.2098 18.6668 11.0765 18.6668 11.9987C18.6668 12.9209 18.4918 13.7876 18.1418 14.5987C17.7918 15.4098 17.3168 16.1154 16.7168 16.7154C16.1168 17.3154 15.4113 17.7904 14.6002 18.1404C13.7891 18.4904 12.9224 18.6654 12.0002 18.6654ZM12.0002 17.332C13.4891 17.332 14.7502 16.8154 15.7835 15.782C16.8168 14.7487 17.3335 13.4876 17.3335 11.9987C17.3335 10.5098 16.8168 9.2487 15.7835 8.21536C14.7502 7.18203 13.4891 6.66536 12.0002 6.66536C10.5113 6.66536 9.25016 7.18203 8.21683 8.21536C7.1835 9.2487 6.66683 10.5098 6.66683 11.9987C6.66683 13.4876 7.1835 14.7487 8.21683 15.782C9.25016 16.8154 10.5113 17.332 12.0002 17.332Z" fill="white"/>
</g>
</svg>
