<svg width="24" height="24" viewBox="0 0 24 24" fill="none" xmlns="http://www.w3.org/2000/svg">
<g clip-path="url(#clip0_930_441)">
<path d="M9.7793 9.5332C11.9884 9.5332 13.7793 7.74234 13.7793 5.5332C13.7793 3.32406 11.9884 1.5332 9.7793 1.5332C7.57016 1.5332 5.7793 3.32406 5.7793 5.5332C5.7793 7.74234 7.57016 9.5332 9.7793 9.5332Z" fill="#9D1217"/>
<path d="M10.9607 21.2142C10.7403 20.9963 10.5966 20.7129 10.5509 20.4064C10.5052 20.0999 10.5601 19.7869 10.7073 19.5142L11.0607 18.8476L10.334 18.6276C10.0377 18.5348 9.77968 18.3479 9.59921 18.0953C9.41873 17.8426 9.32561 17.538 9.33398 17.2276V15.8609C9.33342 15.5519 9.43229 15.2509 9.61597 15.0024C9.79965 14.7539 10.0584 14.571 10.354 14.4809L11.0807 14.2609L10.734 13.5942C10.5911 13.3253 10.5367 13.0181 10.5786 12.7164C10.6205 12.4148 10.7565 12.1341 10.9673 11.9142C10.4544 11.847 9.93791 11.8114 9.42065 11.8076C7.89287 11.7716 6.37597 12.0732 4.97814 12.6909C3.58032 13.3085 2.33602 14.2271 1.33398 15.3809V20.5476C1.33398 20.7244 1.40422 20.8939 1.52925 21.019C1.65427 21.144 1.82384 21.2142 2.00065 21.2142H10.9607Z" fill="#9D1217"/>
<path d="M22.4675 15.6403L21.1342 15.2403C21.0418 14.9111 20.912 14.5935 20.7475 14.2937L21.4142 13.0537C21.4399 13.0077 21.4493 12.9543 21.4409 12.9022C21.4324 12.8501 21.4065 12.8025 21.3675 12.767L20.4008 11.7937C20.3636 11.7574 20.3161 11.7335 20.2648 11.7252C20.2136 11.7168 20.161 11.7245 20.1142 11.747L18.8808 12.4137C18.5772 12.2488 18.2579 12.1148 17.9275 12.0137L17.5208 10.6803C17.5029 10.6312 17.4702 10.5888 17.4273 10.5589C17.3843 10.5291 17.3331 10.5133 17.2808 10.5137H15.8942C15.8422 10.5151 15.7919 10.5325 15.7502 10.5636C15.7084 10.5946 15.6772 10.6377 15.6608 10.687L15.2608 12.0203C14.9241 12.1183 14.5997 12.2548 14.2942 12.427L13.0875 11.7603C13.0406 11.7354 12.987 11.7259 12.9344 11.733C12.8817 11.7402 12.8327 11.7638 12.7942 11.8003L11.8142 12.7603C11.7756 12.7975 11.7501 12.8463 11.7417 12.8992C11.7333 12.9521 11.7423 13.0064 11.7675 13.0537L12.4342 14.267C12.2556 14.5681 12.1103 14.8878 12.0008 15.2203L10.6675 15.627C10.6171 15.6416 10.5728 15.6723 10.5415 15.7145C10.5102 15.7566 10.4935 15.8078 10.4942 15.8603V17.227C10.4935 17.2795 10.5102 17.3308 10.5415 17.3729C10.5728 17.4151 10.6171 17.4458 10.6675 17.4603L12.0008 17.867C12.1008 18.1935 12.2348 18.5086 12.4008 18.807L11.7342 20.0737C11.709 20.121 11.7 20.1752 11.7084 20.2282C11.7168 20.2811 11.7422 20.3298 11.7808 20.367L12.7742 21.3337C12.8127 21.3703 12.8617 21.3938 12.9144 21.401C12.967 21.4082 13.0206 21.3986 13.0675 21.3737L14.3142 20.707C14.6108 20.8666 14.9237 20.994 15.2475 21.087L15.6475 22.4537C15.6643 22.5041 15.6965 22.5479 15.7395 22.5791C15.7826 22.6102 15.8344 22.6269 15.8875 22.627H17.2542C17.3061 22.6256 17.3564 22.6082 17.3982 22.5771C17.4399 22.5461 17.4711 22.503 17.4875 22.4537L17.8875 21.087C18.2074 20.9951 18.516 20.8677 18.8075 20.707L20.0675 21.3737C20.1144 21.3986 20.168 21.4082 20.2206 21.401C20.2732 21.3938 20.3223 21.3703 20.3608 21.3337L21.3342 20.367C21.3707 20.3285 21.3943 20.2794 21.4015 20.2268C21.4086 20.1742 21.3991 20.1206 21.3742 20.0737L20.7075 18.8203C20.867 18.5283 20.9944 18.2198 21.0875 17.9003L22.4208 17.4937C22.4709 17.4776 22.5149 17.4466 22.5471 17.405C22.5792 17.3633 22.598 17.3129 22.6008 17.2603V15.8803C22.6025 15.832 22.5909 15.7841 22.5674 15.7419C22.5439 15.6996 22.5094 15.6645 22.4675 15.6403ZM16.5808 18.787C16.1401 18.7883 15.709 18.6589 15.3419 18.415C14.9749 18.1711 14.6885 17.8238 14.5189 17.4171C14.3494 17.0103 14.3043 16.5624 14.3895 16.13C14.4746 15.6977 14.6862 15.3003 14.9973 14.9882C15.3084 14.6762 15.7052 14.4634 16.1373 14.377C16.5694 14.2905 17.0175 14.3342 17.4247 14.5025C17.832 14.6709 18.1801 14.9563 18.4251 15.3226C18.6701 15.6889 18.8008 16.1197 18.8008 16.5603C18.8008 17.1497 18.5671 17.7151 18.151 18.1325C17.7349 18.5499 17.1702 18.7852 16.5808 18.787Z" fill="#9D1217"/>
</g>
<defs>
<clipPath id="clip0_930_441">
<rect width="24" height="24" fill="white"/>
</clipPath>
</defs>
</svg>
