<svg width="24" height="24" viewBox="0 0 24 24" fill="none" xmlns="http://www.w3.org/2000/svg">
<g clip-path="url(#clip0_1879_11921)">
<path d="M9.7793 9.53125C11.9884 9.53125 13.7793 7.74039 13.7793 5.53125C13.7793 3.32211 11.9884 1.53125 9.7793 1.53125C7.57016 1.53125 5.7793 3.32211 5.7793 5.53125C5.7793 7.74039 7.57016 9.53125 9.7793 9.53125Z" fill="white"/>
<path d="M10.9607 21.2142C10.7403 20.9963 10.5966 20.7129 10.5509 20.4064C10.5052 20.0999 10.5601 19.7869 10.7073 19.5142L11.0607 18.8476L10.334 18.6276C10.0377 18.5348 9.77968 18.3479 9.59921 18.0953C9.41873 17.8426 9.32561 17.538 9.33398 17.2276V15.8609C9.33342 15.5519 9.43229 15.2509 9.61597 15.0024C9.79965 14.7539 10.0584 14.571 10.354 14.4809L11.0807 14.2609L10.734 13.5942C10.5911 13.3253 10.5367 13.0181 10.5786 12.7164C10.6205 12.4148 10.7565 12.1341 10.9673 11.9142C10.4544 11.847 9.93791 11.8114 9.42065 11.8076C7.89287 11.7716 6.37597 12.0732 4.97814 12.6909C3.58032 13.3085 2.33602 14.2271 1.33398 15.3809V20.5476C1.33398 20.7244 1.40422 20.8939 1.52925 21.019C1.65427 21.144 1.82384 21.2142 2.00065 21.2142H10.9607Z" fill="white"/>
<path d="M22.4675 15.6423L21.1342 15.2423C21.0418 14.913 20.912 14.5954 20.7475 14.2956L21.4142 13.0556C21.4399 13.0096 21.4493 12.9562 21.4409 12.9042C21.4324 12.8521 21.4065 12.8044 21.3675 12.769L20.4008 11.7956C20.3636 11.7594 20.3161 11.7355 20.2648 11.7271C20.2136 11.7188 20.161 11.7264 20.1142 11.749L18.8808 12.4156C18.5772 12.2507 18.2579 12.1167 17.9275 12.0156L17.5208 10.6823C17.5029 10.6331 17.4702 10.5907 17.4273 10.5609C17.3843 10.531 17.3331 10.5152 17.2808 10.5156H15.8942C15.8422 10.5171 15.7919 10.5345 15.7502 10.5655C15.7084 10.5965 15.6772 10.6396 15.6608 10.689L15.2608 12.0223C14.9241 12.1203 14.5997 12.2567 14.2942 12.429L13.0875 11.7623C13.0406 11.7374 12.987 11.7278 12.9344 11.735C12.8817 11.7422 12.8327 11.7657 12.7942 11.8023L11.8142 12.7623C11.7756 12.7995 11.7501 12.8482 11.7417 12.9012C11.7333 12.9541 11.7423 13.0083 11.7675 13.0556L12.4342 14.269C12.2556 14.5701 12.1103 14.8897 12.0008 15.2223L10.6675 15.629C10.6171 15.6435 10.5728 15.6743 10.5415 15.7164C10.5102 15.7586 10.4935 15.8098 10.4942 15.8623V17.229C10.4935 17.2815 10.5102 17.3327 10.5415 17.3749C10.5728 17.417 10.6171 17.4477 10.6675 17.4623L12.0008 17.869C12.1008 18.1955 12.2348 18.5106 12.4008 18.809L11.7342 20.0756C11.709 20.123 11.7 20.1772 11.7084 20.2301C11.7168 20.283 11.7422 20.3318 11.7808 20.369L12.7742 21.3356C12.8127 21.3722 12.8617 21.3958 12.9144 21.4029C12.967 21.4101 13.0206 21.4006 13.0675 21.3756L14.3142 20.709C14.6108 20.8685 14.9237 20.9959 15.2475 21.089L15.6475 22.4556C15.6643 22.506 15.6965 22.5499 15.7395 22.581C15.7826 22.6121 15.8344 22.6289 15.8875 22.629H17.2542C17.3061 22.6275 17.3564 22.6101 17.3982 22.5791C17.4399 22.5481 17.4711 22.505 17.4875 22.4556L17.8875 21.089C18.2074 20.9971 18.516 20.8696 18.8075 20.709L20.0675 21.3756C20.1144 21.4006 20.168 21.4101 20.2206 21.4029C20.2732 21.3958 20.3223 21.3722 20.3608 21.3356L21.3342 20.369C21.3707 20.3304 21.3943 20.2814 21.4015 20.2288C21.4086 20.1761 21.3991 20.1225 21.3742 20.0756L20.7075 18.8223C20.867 18.5302 20.9944 18.2218 21.0875 17.9023L22.4208 17.4956C22.4709 17.4795 22.5149 17.4486 22.5471 17.4069C22.5792 17.3653 22.598 17.3148 22.6008 17.2623V15.8823C22.6025 15.834 22.5909 15.7861 22.5674 15.7438C22.5439 15.7015 22.5094 15.6665 22.4675 15.6423ZM16.5808 18.789C16.1401 18.7903 15.709 18.6608 15.3419 18.417C14.9749 18.1731 14.6885 17.8258 14.5189 17.419C14.3494 17.0123 14.3043 16.5644 14.3895 16.132C14.4746 15.6996 14.6862 15.3023 14.9973 14.9902C15.3084 14.6781 15.7052 14.4654 16.1373 14.3789C16.5694 14.2925 17.0175 14.3362 17.4247 14.5045C17.832 14.6728 18.1801 14.9582 18.4251 15.3245C18.6701 15.6909 18.8008 16.1216 18.8008 16.5623C18.8008 17.1517 18.5671 17.717 18.151 18.1344C17.7349 18.5518 17.1702 18.7872 16.5808 18.789Z" fill="white"/>
</g>
<defs>
<clipPath id="clip0_1879_11921">
<rect width="24" height="24" fill="white"/>
</clipPath>
</defs>
</svg>
