<svg width="44" height="44" viewBox="0 0 44 44" fill="none" xmlns="http://www.w3.org/2000/svg">
<rect width="44" height="44" rx="4" fill="#00BF00"/>
<path d="M22 32.75C16.07 32.75 11.25 27.93 11.25 22C11.25 16.07 16.07 11.25 22 11.25C27.93 11.25 32.75 16.07 32.75 22C32.75 27.93 27.93 32.75 22 32.75ZM22 12.75C16.9 12.75 12.75 16.9 12.75 22C12.75 27.1 16.9 31.25 22 31.25C27.1 31.25 31.25 27.1 31.25 22C31.25 16.9 27.1 12.75 22 12.75Z" fill="white"/>
<path d="M20.5795 25.5796C20.3795 25.5796 20.1895 25.4996 20.0495 25.3596L17.2195 22.5296C16.9295 22.2396 16.9295 21.7596 17.2195 21.4696C17.5095 21.1796 17.9895 21.1796 18.2795 21.4696L20.5795 23.7696L25.7195 18.6296C26.0095 18.3396 26.4895 18.3396 26.7795 18.6296C27.0695 18.9196 27.0695 19.3996 26.7795 19.6896L21.1095 25.3596C20.9695 25.4996 20.7795 25.5796 20.5795 25.5796Z" fill="white"/>
</svg>
