<svg width="43" height="40" viewBox="0 0 43 40" fill="none" xmlns="http://www.w3.org/2000/svg">
<path d="M19.8708 24.71L12.6768 16.487C11.8278 15.5195 12.5178 14 13.8063 14H28.1943C28.4826 13.9998 28.765 14.0826 29.0074 14.2387C29.2499 14.3948 29.4423 14.6175 29.5614 14.88C29.6806 15.1426 29.7216 15.434 29.6794 15.7193C29.6373 16.0045 29.5138 16.2716 29.3238 16.4885L22.1298 24.7085C21.989 24.8696 21.8153 24.9987 21.6205 25.0872C21.4257 25.1757 21.2142 25.2215 21.0003 25.2215C20.7863 25.2215 20.5748 25.1757 20.38 25.0872C20.1852 24.9987 20.0116 24.8696 19.8708 24.7085V24.71Z" fill="#ED1000"/>
</svg>
