<svg width="24" height="24" viewBox="0 0 24 24" fill="none" xmlns="http://www.w3.org/2000/svg">
<path d="M8.90961 20.6734C8.71961 20.6734 8.52961 20.6034 8.37961 20.4534C8.08961 20.1634 8.08961 19.6834 8.37961 19.3934L14.8996 12.8734C15.3796 12.3934 15.3796 11.6134 14.8996 11.1334L8.37961 4.61344C8.08961 4.32344 8.08961 3.84344 8.37961 3.55344C8.66961 3.26344 9.14961 3.26344 9.43961 3.55344L15.9596 10.0734C16.4696 10.5834 16.7596 11.2734 16.7596 12.0034C16.7596 12.7334 16.4796 13.4234 15.9596 13.9334L9.43961 20.4534C9.28961 20.5934 9.09961 20.6734 8.90961 20.6734Z" fill="#F2F2F2"/>
</svg>
