<svg width="44" height="44" viewBox="0 0 44 44" fill="none" xmlns="http://www.w3.org/2000/svg">
<rect width="44" height="44" rx="22" fill="#F9F9F9"/>
<path d="M21.9998 21.25C19.7298 21.25 19.2698 17.81 19.2698 17.81C18.9998 16.02 19.8198 14 21.9698 14C24.1298 14 24.9498 16.02 24.6798 17.81C24.6798 17.81 24.2698 21.25 21.9998 21.25ZM21.9998 23.82L24.7198 22C27.1098 22 29.2398 24.33 29.2398 26.53V29.02C29.2398 29.02 25.5898 30.15 21.9998 30.15C18.3498 30.15 14.7598 29.02 14.7598 29.02V26.53C14.7598 24.28 16.6998 22.05 19.2298 22.05L21.9998 23.82Z" fill="black"/>
</svg>
