<svg width="24" height="24" viewBox="0 0 24 24" fill="none" xmlns="http://www.w3.org/2000/svg">
<rect width="24" height="24" fill="#0270F0"/>
<mask id="mask0_1004_8231" style="mask-type:alpha" maskUnits="userSpaceOnUse" x="4" y="4" width="16" height="16">
<rect x="4" y="4" width="16" height="16" fill="#D9D9D9"/>
</mask>
<g mask="url(#mask0_1004_8231)">
<path d="M9.60028 15.332L12.0003 12.932L14.4003 15.332L15.3336 14.3987L12.9336 11.9987L15.3336 9.5987L14.4003 8.66536L12.0003 11.0654L9.60028 8.66536L8.66695 9.5987L11.067 11.9987L8.66695 14.3987L9.60028 15.332ZM12.0003 18.6654C11.0781 18.6654 10.2114 18.4904 9.40028 18.1404C8.58917 17.7904 7.88362 17.3154 7.28362 16.7154C6.68362 16.1154 6.20862 15.4098 5.85862 14.5987C5.50862 13.7876 5.33362 12.9209 5.33362 11.9987C5.33362 11.0765 5.50862 10.2098 5.85862 9.3987C6.20862 8.58759 6.68362 7.88203 7.28362 7.28203C7.88362 6.68203 8.58917 6.20703 9.40028 5.85703C10.2114 5.50703 11.0781 5.33203 12.0003 5.33203C12.9225 5.33203 13.7892 5.50703 14.6003 5.85703C15.4114 6.20703 16.117 6.68203 16.717 7.28203C17.317 7.88203 17.792 8.58759 18.142 9.3987C18.492 10.2098 18.667 11.0765 18.667 11.9987C18.667 12.9209 18.492 13.7876 18.142 14.5987C17.792 15.4098 17.317 16.1154 16.717 16.7154C16.117 17.3154 15.4114 17.7904 14.6003 18.1404C13.7892 18.4904 12.9225 18.6654 12.0003 18.6654ZM12.0003 17.332C13.4892 17.332 14.7503 16.8154 15.7836 15.782C16.817 14.7487 17.3336 13.4876 17.3336 11.9987C17.3336 10.5098 16.817 9.2487 15.7836 8.21536C14.7503 7.18203 13.4892 6.66536 12.0003 6.66536C10.5114 6.66536 9.25028 7.18203 8.21695 8.21536C7.18362 9.2487 6.66695 10.5098 6.66695 11.9987C6.66695 13.4876 7.18362 14.7487 8.21695 15.782C9.25028 16.8154 10.5114 17.332 12.0003 17.332Z" fill="white"/>
</g>
</svg>
