<svg width="27" height="24" viewBox="0 0 27 24" fill="none" xmlns="http://www.w3.org/2000/svg">
<path d="M11.8708 16.71L4.67676 8.487C3.82776 7.5195 4.51776 6 5.80626 6H20.1943C20.4826 5.99975 20.765 6.08263 21.0074 6.23871C21.2499 6.39479 21.4423 6.61746 21.5614 6.88004C21.6806 7.14262 21.7216 7.434 21.6794 7.71927C21.6373 8.00454 21.5138 8.27161 21.3238 8.4885L14.1298 16.7085C13.989 16.8696 13.8153 16.9987 13.6205 17.0872C13.4257 17.1757 13.2142 17.2215 13.0003 17.2215C12.7863 17.2215 12.5748 17.1757 12.38 17.0872C12.1852 16.9987 12.0116 16.8696 11.8708 16.7085V16.71Z" fill="#ED1000"/>
</svg>
