<svg width="27" height="24" viewBox="0 0 27 24" fill="none" xmlns="http://www.w3.org/2000/svg">
<g clip-path="url(#clip0_951_1015)">
<path d="M17.7266 5.25L21.25 8.77344C21.3984 8.92187 21.3984 9.16406 21.25 9.3125L12.7188 17.8438L9.09375 18.2461C8.60938 18.3008 8.19922 17.8906 8.25391 17.4062L8.65625 13.7812L17.1875 5.25C17.3359 5.10156 17.5781 5.10156 17.7266 5.25ZM24.0547 4.35547L22.1484 2.44922C21.5547 1.85547 20.5898 1.85547 19.9922 2.44922L18.6094 3.83203C18.4609 3.98047 18.4609 4.22266 18.6094 4.37109L22.1328 7.89453C22.2812 8.04297 22.5234 8.04297 22.6719 7.89453L24.0547 6.51172C24.6484 5.91406 24.6484 4.94922 24.0547 4.35547ZM17 15.5234V19.5H4.5V7H13.4766C13.6016 7 13.7188 6.94922 13.8086 6.86328L15.3711 5.30078C15.668 5.00391 15.457 4.5 15.0391 4.5H3.875C2.83984 4.5 2 5.33984 2 6.375V20.125C2 21.1602 2.83984 22 3.875 22H17.625C18.6602 22 19.5 21.1602 19.5 20.125V13.9609C19.5 13.543 18.9961 13.3359 18.6992 13.6289L17.1367 15.1914C17.0508 15.2812 17 15.3984 17 15.5234Z" fill="black"/>
</g>
<defs>
<clipPath id="clip0_951_1015">
<rect width="22.5" height="20" fill="white" transform="translate(2 2)"/>
</clipPath>
</defs>
</svg>
