<svg width="24" height="24" viewBox="0 0 24 24" fill="none" xmlns="http://www.w3.org/2000/svg">
<path d="M15 22.75H9C3.57 22.75 1.25 20.43 1.25 15V9C1.25 3.57 3.57 1.25 9 1.25H11C11.41 1.25 11.75 1.59 11.75 2C11.75 2.41 11.41 2.75 11 2.75H9C4.39 2.75 2.75 4.39 2.75 9V15C2.75 19.61 4.39 21.25 9 21.25H15C19.61 21.25 21.25 19.61 21.25 15V13C21.25 12.59 21.59 12.25 22 12.25C22.41 12.25 22.75 12.59 22.75 13V15C22.75 20.43 20.43 22.75 15 22.75Z" fill="white"/>
<path d="M8.49935 17.6925C7.88935 17.6925 7.32935 17.4725 6.91935 17.0725C6.42935 16.5825 6.21935 15.8725 6.32935 15.1225L6.75935 12.1125C6.83935 11.5325 7.21935 10.7825 7.62935 10.3725L15.5093 2.4925C17.4993 0.5025 19.5193 0.5025 21.5093 2.4925C22.5993 3.5825 23.0893 4.6925 22.9893 5.8025C22.8993 6.7025 22.4193 7.5825 21.5093 8.4825L13.6293 16.3625C13.2193 16.7725 12.4693 17.1525 11.8893 17.2325L8.87935 17.6625C8.74935 17.6925 8.61935 17.6925 8.49935 17.6925ZM16.5693 3.5525L8.68935 11.4325C8.49935 11.6225 8.27935 12.0625 8.23935 12.3225L7.80935 15.3325C7.76935 15.6225 7.82935 15.8625 7.97935 16.0125C8.12935 16.1625 8.36935 16.2225 8.65935 16.1825L11.6693 15.7525C11.9293 15.7125 12.3793 15.4925 12.5593 15.3025L20.4393 7.4225C21.0893 6.7725 21.4293 6.1925 21.4793 5.6525C21.5393 5.0025 21.1993 4.3125 20.4393 3.5425C18.8393 1.9425 17.7393 2.3925 16.5693 3.5525Z" fill="white"/>
<path d="M19.8496 9.83027C19.7796 9.83027 19.7096 9.82027 19.6496 9.80027C17.0196 9.06027 14.9296 6.97027 14.1896 4.34027C14.0796 3.94027 14.3096 3.53027 14.7096 3.41027C15.1096 3.30027 15.5196 3.53027 15.6296 3.93027C16.2296 6.06027 17.9196 7.75027 20.0496 8.35027C20.4496 8.46027 20.6796 8.88027 20.5696 9.28027C20.4796 9.62027 20.1796 9.83027 19.8496 9.83027Z" fill="white"/>
</svg>
