<svg width="40" height="40" viewBox="0 0 40 40" fill="none" xmlns="http://www.w3.org/2000/svg">
<path d="M27.77 19.25H23.73C21.72 19.25 20.75 18.36 20.75 16.52V11.98C20.75 10.14 21.73 9.25 23.73 9.25H27.77C29.78 9.25 30.75 10.14 30.75 11.98V16.51C30.75 18.36 29.77 19.25 27.77 19.25ZM23.73 10.75C22.39 10.75 22.25 11.13 22.25 11.98V16.51C22.25 17.37 22.39 17.74 23.73 17.74H27.77C29.11 17.74 29.25 17.36 29.25 16.51V11.98C29.25 11.12 29.11 10.75 27.77 10.75H23.73Z" fill="#9D1217"/>
<path d="M27.77 30.75H23.73C21.72 30.75 20.75 29.77 20.75 27.77V23.73C20.75 21.72 21.73 20.75 23.73 20.75H27.77C29.78 20.75 30.75 21.73 30.75 23.73V27.77C30.75 29.77 29.77 30.75 27.77 30.75ZM23.73 22.25C22.55 22.25 22.25 22.55 22.25 23.73V27.77C22.25 28.95 22.55 29.25 23.73 29.25H27.77C28.95 29.25 29.25 28.95 29.25 27.77V23.73C29.25 22.55 28.95 22.25 27.77 22.25H23.73Z" fill="#9D1217"/>
<path d="M16.27 19.25H12.23C10.22 19.25 9.25 18.36 9.25 16.52V11.98C9.25 10.14 10.23 9.25 12.23 9.25H16.27C18.28 9.25 19.25 10.14 19.25 11.98V16.51C19.25 18.36 18.27 19.25 16.27 19.25ZM12.23 10.75C10.89 10.75 10.75 11.13 10.75 11.98V16.51C10.75 17.37 10.89 17.74 12.23 17.74H16.27C17.61 17.74 17.75 17.36 17.75 16.51V11.98C17.75 11.12 17.61 10.75 16.27 10.75H12.23Z" fill="#9D1217"/>
<path d="M16.27 30.75H12.23C10.22 30.75 9.25 29.77 9.25 27.77V23.73C9.25 21.72 10.23 20.75 12.23 20.75H16.27C18.28 20.75 19.25 21.73 19.25 23.73V27.77C19.25 29.77 18.27 30.75 16.27 30.75ZM12.23 22.25C11.05 22.25 10.75 22.55 10.75 23.73V27.77C10.75 28.95 11.05 29.25 12.23 29.25H16.27C17.45 29.25 17.75 28.95 17.75 27.77V23.73C17.75 22.55 17.45 22.25 16.27 22.25H12.23Z" fill="#9D1217"/>
</svg>
