<svg width="40" height="40" viewBox="0 0 40 40" fill="none" xmlns="http://www.w3.org/2000/svg">
<path d="M27.9 30.75H12.1C10.18 30.75 9.25 29.77 9.25 27.77V23.73C9.25 21.72 10.18 20.75 12.1 20.75H27.9C29.82 20.75 30.75 21.73 30.75 23.73V27.77C30.75 29.77 29.82 30.75 27.9 30.75ZM12.1 22.25C11.09 22.25 10.75 22.46 10.75 23.73V27.77C10.75 29.04 11.09 29.25 12.1 29.25H27.9C28.91 29.25 29.25 29.04 29.25 27.77V23.73C29.25 22.46 28.91 22.25 27.9 22.25H12.1Z" fill="#9D1217"/>
<path d="M27.9 19.25H12.1C10.18 19.25 9.25 18.27 9.25 16.27V12.23C9.25 10.22 10.18 9.25 12.1 9.25H27.9C29.82 9.25 30.75 10.23 30.75 12.23V16.27C30.75 18.27 29.82 19.25 27.9 19.25ZM12.1 10.75C11.09 10.75 10.75 10.96 10.75 12.23V16.27C10.75 17.54 11.09 17.75 12.1 17.75H27.9C28.91 17.75 29.25 17.54 29.25 16.27V12.23C29.25 10.96 28.91 10.75 27.9 10.75H12.1Z" fill="#9D1217"/>
</svg>
