<svg width="24" height="24" viewBox="0 0 24 24" fill="none" xmlns="http://www.w3.org/2000/svg">
<path d="M12.0005 11.1004C9.2765 11.1004 8.7245 6.97239 8.7245 6.97239C8.4005 4.82439 9.3845 2.40039 11.9645 2.40039C14.5565 2.40039 15.5405 4.82439 15.2165 6.97239C15.2165 6.97239 14.7245 11.1004 12.0005 11.1004ZM12.0005 14.1844L15.2645 12.0004C18.1325 12.0004 20.6885 14.7964 20.6885 17.4364V20.4244C20.6885 20.4244 16.3085 21.7804 12.0005 21.7804C7.6205 21.7804 3.3125 20.4244 3.3125 20.4244V17.4364C3.3125 14.7364 5.6405 12.0604 8.6765 12.0604L12.0005 14.1844Z" fill="white"/>
</svg>
