<svg width="48" height="48" viewBox="0 0 48 48" fill="none" xmlns="http://www.w3.org/2000/svg">
<path d="M37.8302 25.2293C36.3245 25.0085 34.8566 24.5804 33.4682 23.9573C37.7507 20.1916 42.2098 16.6316 46.8302 13.2893L47.1302 13.0793L47.3102 12.7493C48.1433 10.9938 48.37 9.01141 47.9546 7.1132C47.5393 5.21498 46.5054 3.5084 45.0152 2.2613C43.6355 0.984862 41.8817 0.186075 40.0131 -0.017049C38.1444 -0.220173 36.26 0.183138 34.6382 1.1333L34.2602 1.5323C29.7702 7.76691 24.8503 13.6803 19.5362 19.2293C13.875 24.2709 7.83969 28.8761 1.48223 33.0053L0.300228 33.7493V34.4393C-0.146141 36.3115 -0.189756 38.2571 0.17227 40.1474C0.534297 42.0377 1.29371 43.8295 2.40023 45.4043C3.25058 46.2898 4.28288 46.9804 5.42594 47.4284C6.56899 47.8764 7.79562 48.0712 9.02123 47.9993C10.0693 48.0542 11.1135 47.8332 12.0494 47.3583C12.9854 46.8835 13.7805 46.1715 14.3552 45.2933C15.0902 44.3693 20.5502 37.4693 26.3702 31.1693C27.1742 32.5613 27.7982 34.1783 28.1522 35.8943C28.5295 39.024 28.1181 42.1983 26.9552 45.1283L32.0102 38.9993L36.0002 41.9993C35.8883 38.5977 35.2985 35.2287 34.2482 31.9913C33.513 30.6517 32.5885 29.4251 31.5032 28.3493C32.7212 29.3873 34.1162 30.2783 35.6192 30.9713C38.4392 31.9853 41.5862 32.6873 44.8472 32.9873L42.0002 29.1893L48.0002 23.9993C45.3081 24.8639 42.4968 25.3002 39.6692 25.2923C39.0212 25.2923 38.3792 25.2703 37.7432 25.2263L37.8302 25.2293ZM36.4802 3.5393C37.2664 3.15388 38.1307 2.95473 39.0062 2.9573C40.5242 2.9573 41.9042 3.5453 42.9332 4.5053C43.8878 5.27192 44.5748 6.32138 44.8955 7.50292C45.2162 8.68446 45.1542 9.93725 44.7182 11.0813C43.2602 12.0023 37.6802 16.2323 32.2802 21.0023C32.1267 19.4982 31.411 18.1074 30.2762 17.1083C29.7681 16.6734 29.1748 16.3494 28.5341 16.1573C27.8935 15.9651 27.2198 15.9089 26.5562 15.9923C30.0525 11.9949 33.364 7.83957 36.4802 3.5393ZM8.10023 35.4293C8.33108 35.2692 8.6053 35.1834 8.88623 35.1833L9.00623 35.1893H9.21023C9.74723 35.3453 10.2122 35.6153 10.5932 35.9723L7.98023 38.1293C7.65971 37.4617 7.53588 36.7167 7.62323 35.9813C7.70609 35.7449 7.87547 35.5487 8.09723 35.4323L8.10023 35.4293ZM12.0002 43.4993C11.705 44.0217 11.2599 44.4437 10.7225 44.7105C10.185 44.9774 9.57986 45.0769 8.98523 44.9963C8.1691 45.072 7.34635 44.966 6.57607 44.6859C5.80579 44.4058 5.10711 43.9585 4.53023 43.3763C3.38496 41.6719 2.77584 39.6638 2.78123 37.6103C2.78323 36.8563 2.86023 36.1263 3.01223 35.4203L5.13023 34.0493C4.84823 34.4693 4.63823 34.9613 4.53323 35.4923C4.36947 37.5773 4.93698 39.6543 6.13823 41.3663L7.20023 42.6863L12.3002 38.4863C12.81 40.1542 12.697 41.9504 11.9822 43.5413L12.0002 43.4993ZM14.5802 36.1493C13.5563 34.3558 11.9138 32.997 9.96023 32.3273C9.74723 32.2913 9.57023 32.2793 9.39023 32.2793C9.21023 32.2793 9.03323 32.2913 8.85923 32.3093C8.51028 32.2709 8.15817 32.2709 7.80923 32.3093C11.9645 29.4824 15.9588 26.4256 19.7732 23.1533C20.9672 23.3663 22.2092 23.9033 23.1662 24.7523C24.0572 25.6913 24.6062 26.9693 24.6062 28.3793L24.6002 28.6613C21.4517 32.0375 18.449 35.5467 15.6002 39.1793C15.4465 38.0963 15.0826 37.0538 14.5292 36.1103L14.5802 36.1493Z" fill="#00473E"/>
</svg>
