<svg width="25" height="25" viewBox="0 0 25 25" fill="none" xmlns="http://www.w3.org/2000/svg">
<mask id="mask0_1861_55266" style="mask-type:alpha" maskUnits="userSpaceOnUse" x="0" y="0" width="25" height="25">
<rect x="0.349609" y="0.770996" width="24" height="24" fill="#D9D9D9"/>
</mask>
<g mask="url(#mask0_1861_55266)">
<path d="M10.9496 16.821L17.9996 9.771L16.5996 8.371L10.9496 14.021L8.09961 11.171L6.69961 12.571L10.9496 16.821ZM5.34961 21.771C4.79961 21.771 4.32878 21.5752 3.93711 21.1835C3.54544 20.7918 3.34961 20.321 3.34961 19.771V5.771C3.34961 5.221 3.54544 4.75016 3.93711 4.3585C4.32878 3.96683 4.79961 3.771 5.34961 3.771H9.54961C9.76628 3.171 10.1288 2.68766 10.6371 2.321C11.1454 1.95433 11.7163 1.771 12.3496 1.771C12.9829 1.771 13.5538 1.95433 14.0621 2.321C14.5704 2.68766 14.9329 3.171 15.1496 3.771H19.3496C19.8996 3.771 20.3704 3.96683 20.7621 4.3585C21.1538 4.75016 21.3496 5.221 21.3496 5.771V19.771C21.3496 20.321 21.1538 20.7918 20.7621 21.1835C20.3704 21.5752 19.8996 21.771 19.3496 21.771H5.34961ZM12.3496 5.021C12.5663 5.021 12.7454 4.95016 12.8871 4.8085C13.0288 4.66683 13.0996 4.48766 13.0996 4.271C13.0996 4.05433 13.0288 3.87516 12.8871 3.7335C12.7454 3.59183 12.5663 3.521 12.3496 3.521C12.1329 3.521 11.9538 3.59183 11.8121 3.7335C11.6704 3.87516 11.5996 4.05433 11.5996 4.271C11.5996 4.48766 11.6704 4.66683 11.8121 4.8085C11.9538 4.95016 12.1329 5.021 12.3496 5.021Z" fill="white"/>
</g>
</svg>
