<svg width="25" height="25" viewBox="0 0 25 25" fill="none" xmlns="http://www.w3.org/2000/svg">
<mask id="mask0_1860_39801" style="mask-type:alpha" maskUnits="userSpaceOnUse" x="0" y="0" width="25" height="25">
<rect x="0.349609" y="0.771484" width="24" height="24" fill="#D9D9D9"/>
</mask>
<g mask="url(#mask0_1860_39801)">
<path d="M10.9496 16.8215L17.9996 9.77148L16.5996 8.37148L10.9496 14.0215L8.09961 11.1715L6.69961 12.5715L10.9496 16.8215ZM5.34961 21.7715C4.79961 21.7715 4.32878 21.5757 3.93711 21.184C3.54544 20.7923 3.34961 20.3215 3.34961 19.7715V5.77148C3.34961 5.22148 3.54544 4.75065 3.93711 4.35898C4.32878 3.96732 4.79961 3.77148 5.34961 3.77148H9.54961C9.76628 3.17148 10.1288 2.68815 10.6371 2.32148C11.1454 1.95482 11.7163 1.77148 12.3496 1.77148C12.9829 1.77148 13.5538 1.95482 14.0621 2.32148C14.5704 2.68815 14.9329 3.17148 15.1496 3.77148H19.3496C19.8996 3.77148 20.3704 3.96732 20.7621 4.35898C21.1538 4.75065 21.3496 5.22148 21.3496 5.77148V19.7715C21.3496 20.3215 21.1538 20.7923 20.7621 21.184C20.3704 21.5757 19.8996 21.7715 19.3496 21.7715H5.34961ZM12.3496 5.02148C12.5663 5.02148 12.7454 4.95065 12.8871 4.80898C13.0288 4.66732 13.0996 4.48815 13.0996 4.27148C13.0996 4.05482 13.0288 3.87565 12.8871 3.73398C12.7454 3.59232 12.5663 3.52148 12.3496 3.52148C12.1329 3.52148 11.9538 3.59232 11.8121 3.73398C11.6704 3.87565 11.5996 4.05482 11.5996 4.27148C11.5996 4.48815 11.6704 4.66732 11.8121 4.80898C11.9538 4.95065 12.1329 5.02148 12.3496 5.02148Z" fill="#9D1217"/>
</g>
</svg>
