<svg width="48" height="48" viewBox="0 0 48 48" fill="none" xmlns="http://www.w3.org/2000/svg">
<path fill-rule="evenodd" clip-rule="evenodd" d="M24 26C29.525 26 34 21.525 34 16C34 10.475 29.525 6 24 6C18.475 6 14 10.475 14 16C14 21.525 18.475 26 24 26ZM32 16C32 20.42 28.42 24 24 24C19.58 24 16 20.42 16 16C16 11.58 19.58 8 24 8C28.42 8 32 11.58 32 16ZM29.035 27.874L26 36.544V36L25.425 31.979C25.6086 31.9403 25.7775 31.8508 25.9126 31.7207C26.0477 31.5905 26.1435 31.425 26.189 31.243L26.689 29.243C26.7259 29.0956 26.7288 28.9418 26.6973 28.7932C26.6659 28.6445 26.601 28.505 26.5076 28.3852C26.4142 28.2654 26.2948 28.1684 26.1583 28.1017C26.0218 28.0349 25.8719 28.0002 25.72 28H22.282C22.1301 28 21.9802 28.0347 21.8437 28.1013C21.7072 28.1679 21.5877 28.2648 21.4942 28.3845C21.4007 28.5042 21.3357 28.6436 21.3041 28.7922C21.2725 28.9408 21.2752 29.0946 21.312 29.242L21.812 31.242C21.8573 31.4242 21.953 31.5899 22.0881 31.7202C22.2232 31.8506 22.3923 31.9403 22.576 31.979L22.014 35.911L18.96 27.863L18.94 27.82C18.7924 27.517 18.5459 27.2735 18.2411 27.1297C17.9364 26.9859 17.5917 26.9503 17.264 27.029C16.923 27.112 16.547 27.199 16.15 27.293C15.213 27.512 14.156 27.759 13.154 28.038C11.741 28.432 10.277 28.928 9.26 29.596C7.387 30.826 6 32.453 6 34.5V42H42V34.5C42 32.453 40.614 30.825 38.74 29.596C37.724 28.928 36.26 28.432 34.847 28.038C33.8535 27.7691 32.8547 27.5208 31.851 27.293C31.4793 27.2067 31.1079 27.1187 30.737 27.029C30.4095 26.9506 30.065 26.9862 29.7605 27.1301C29.4559 27.2739 29.2095 27.5172 29.062 27.82L29.035 27.874ZM31.444 29.252L30.731 29.084L26.909 40H40V34.5C40 33.454 39.296 32.353 37.643 31.268C36.909 30.785 35.713 30.355 34.311 29.965C33.3607 29.7075 32.4042 29.4698 31.444 29.252ZM17.282 29.081L21.425 40H8V34.5C8 33.454 8.704 32.353 10.357 31.268C11.091 30.785 12.287 30.355 13.689 29.965C14.6392 29.7072 15.5948 29.4695 16.555 29.252L17.282 29.081Z" fill="#00473E"/>
</svg>
