<svg width="24" height="24" viewBox="0 0 24 24" fill="none" xmlns="http://www.w3.org/2000/svg">
<g clip-path="url(#clip0_1681_17793)">
<path d="M21.0299 18.1163C20.4299 17.5814 19.9046 16.9682 19.4681 16.2932C18.9916 15.3614 18.706 14.3439 18.6281 13.3003V10.2265C18.6322 8.58734 18.0376 7.00308 16.956 5.77139C15.8744 4.5397 14.3803 3.74537 12.7543 3.53763V2.73496C12.7543 2.51466 12.6668 2.30337 12.511 2.14759C12.3553 1.99181 12.144 1.9043 11.9237 1.9043C11.7034 1.9043 11.4921 1.99181 11.3363 2.14759C11.1805 2.30337 11.093 2.51466 11.093 2.73496V3.55007C9.4816 3.77279 8.00551 4.57192 6.93813 5.79947C5.87074 7.02703 5.28438 8.59981 5.28766 10.2265V13.3003C5.20973 14.3439 4.92415 15.3614 4.44766 16.2932C4.01888 16.9666 3.50201 17.5798 2.91077 18.1163C2.8444 18.1746 2.79121 18.2464 2.75473 18.3268C2.71825 18.4073 2.69933 18.4946 2.69922 18.583V19.4292C2.69922 19.5942 2.76477 19.7525 2.88146 19.8692C2.99815 19.9859 3.15642 20.0514 3.32144 20.0514H20.6192C20.7842 20.0514 20.9425 19.9859 21.0592 19.8692C21.1759 19.7525 21.2414 19.5942 21.2414 19.4292V18.583C21.2413 18.4946 21.2224 18.4073 21.1859 18.3268C21.1495 18.2464 21.0963 18.1746 21.0299 18.1163ZM3.99344 18.807C4.57236 18.2477 5.08208 17.621 5.51166 16.9403C6.11187 15.815 6.46207 14.5734 6.53833 13.3003V10.2265C6.51365 9.4973 6.63597 8.77057 6.898 8.0896C7.16003 7.40864 7.55642 6.78736 8.06355 6.26278C8.57068 5.73819 9.1782 5.32102 9.84991 5.03611C10.5216 4.7512 11.2438 4.60437 11.9734 4.60437C12.7031 4.60437 13.4253 4.7512 14.097 5.03611C14.7687 5.32102 15.3762 5.73819 15.8833 6.26278C16.3905 6.78736 16.7868 7.40864 17.0489 8.0896C17.3109 8.77057 17.4332 9.4973 17.4086 10.2265V13.3003C17.4848 14.5734 17.835 15.815 18.4352 16.9403C18.8648 17.621 19.3745 18.2477 19.9534 18.807H3.99344Z" fill="black"/>
<path d="M12.0015 22.1296C12.3935 22.1206 12.7696 21.9732 13.0634 21.7136C13.3572 21.454 13.5497 21.0988 13.6069 20.7109H10.334C10.3928 21.1094 10.5943 21.4729 10.901 21.7338C11.2078 21.9948 11.5989 22.1354 12.0015 22.1296Z" fill="black"/>
</g>
<defs>
<clipPath id="clip0_1681_17793">
<rect width="22.4" height="22.4" fill="white" transform="translate(0.800781 0.800781)"/>
</clipPath>
</defs>
</svg>
