<svg width="24" height="24" viewBox="0 0 24 24" fill="none" xmlns="http://www.w3.org/2000/svg">
<mask id="mask0_1355_13662" style="mask-type:alpha" maskUnits="userSpaceOnUse" x="0" y="0" width="24" height="24">
<rect width="24" height="24" transform="matrix(0 -1 -1 0 24 24)" fill="#D9D9D9"/>
</mask>
<g mask="url(#mask0_1355_13662)">
<path d="M10 18C10 18.55 10.1958 19.0208 10.5875 19.4125C10.9792 19.8042 11.45 20 12 20C12.55 20 13.0208 19.8042 13.4125 19.4125C13.8042 19.0208 14 18.55 14 18C14 17.45 13.8042 16.9792 13.4125 16.5875C13.0208 16.1958 12.55 16 12 16C11.45 16 10.9792 16.1958 10.5875 16.5875C10.1958 16.9792 10 17.45 10 18ZM10 12C10 12.55 10.1958 13.0208 10.5875 13.4125C10.9792 13.8042 11.45 14 12 14C12.55 14 13.0208 13.8042 13.4125 13.4125C13.8042 13.0208 14 12.55 14 12C14 11.45 13.8042 10.9792 13.4125 10.5875C13.0208 10.1958 12.55 10 12 10C11.45 10 10.9792 10.1958 10.5875 10.5875C10.1958 10.9792 10 11.45 10 12ZM10 6C10 6.55 10.1958 7.02083 10.5875 7.4125C10.9792 7.80417 11.45 8 12 8C12.55 8 13.0208 7.80417 13.4125 7.4125C13.8042 7.02083 14 6.55 14 6C14 5.45 13.8042 4.97917 13.4125 4.5875C13.0208 4.19583 12.55 4 12 4C11.45 4 10.9792 4.19583 10.5875 4.5875C10.1958 4.97917 10 5.45 10 6Z" fill="#1C1B1F"/>
</g>
</svg>
