<svg width="24" height="25" viewBox="0 0 24 25" fill="none" xmlns="http://www.w3.org/2000/svg">
<path d="M21 8.25H3C2.59 8.25 2.25 7.91 2.25 7.5C2.25 7.09 2.59 6.75 3 6.75H21C21.41 6.75 21.75 7.09 21.75 7.5C21.75 7.91 21.41 8.25 21 8.25Z" fill="#292D32"/>
<path d="M18 13.25H6C5.59 13.25 5.25 12.91 5.25 12.5C5.25 12.09 5.59 11.75 6 11.75H18C18.41 11.75 18.75 12.09 18.75 12.5C18.75 12.91 18.41 13.25 18 13.25Z" fill="#292D32"/>
<path d="M14 18.25H10C9.59 18.25 9.25 17.91 9.25 17.5C9.25 17.09 9.59 16.75 10 16.75H14C14.41 16.75 14.75 17.09 14.75 17.5C14.75 17.91 14.41 18.25 14 18.25Z" fill="#292D32"/>
</svg>
