<svg width="48" height="48" viewBox="0 0 48 48" fill="none" xmlns="http://www.w3.org/2000/svg">
<path d="M4 4H32C35.772 4 37.656 4 38.828 5.172C40 6.344 40 8.228 40 12V24C40 27.772 40 29.656 38.828 30.828C37.656 32 35.772 32 32 32H18M20 13H32M4 34V26C4 24.114 4 23.172 4.586 22.586C5.172 22 6.114 22 8 22H12M4 34H12M4 34V44M12 22V34M12 22H24M12 34V44" stroke="#00473E" stroke-width="1.5" stroke-linecap="round" stroke-linejoin="round"/>
<path d="M12 13C12 14.0609 11.5786 15.0783 10.8284 15.8284C10.0783 16.5786 9.06087 17 8 17C6.93913 17 5.92172 16.5786 5.17157 15.8284C4.42143 15.0783 4 14.0609 4 13C4 11.9391 4.42143 10.9217 5.17157 10.1716C5.92172 9.42143 6.93913 9 8 9C9.06087 9 10.0783 9.42143 10.8284 10.1716C11.5786 10.9217 12 11.9391 12 13Z" stroke="#00473E" stroke-width="1.5" stroke-linecap="round" stroke-linejoin="round"/>
</svg>
