<svg width="48" height="48" viewBox="0 0 48 48" fill="none" xmlns="http://www.w3.org/2000/svg">
<path d="M42.4744 10.577L24.4744 4.57699C24.1665 4.47434 23.8335 4.47434 23.5256 4.57699L5.52562 10.577C5.22695 10.6766 4.96717 10.8676 4.78309 11.123C4.59902 11.3784 4.49998 11.6853 4.5 12.0001V27.0001C4.5 27.3979 4.65804 27.7795 4.93934 28.0608C5.22064 28.3421 5.60218 28.5001 6 28.5001C6.39782 28.5001 6.77936 28.3421 7.06066 28.0608C7.34196 27.7795 7.5 27.3979 7.5 27.0001V14.0814L13.7981 16.1795C12.1248 18.8829 11.5927 22.1398 12.3186 25.2352C13.0446 28.3306 14.9692 31.0113 17.67 32.6889C14.295 34.0126 11.3775 36.407 9.24375 39.6807C9.13278 39.8457 9.0557 40.031 9.01699 40.226C8.97828 40.421 8.97871 40.6217 9.01826 40.8165C9.05782 41.0113 9.1357 41.1964 9.24738 41.3608C9.35906 41.5253 9.50231 41.6659 9.66882 41.7745C9.83532 41.8831 10.0217 41.9575 10.2173 41.9934C10.4128 42.0293 10.6135 42.026 10.8077 41.9837C11.0019 41.9413 11.1858 41.8608 11.3487 41.7468C11.5115 41.6328 11.65 41.4875 11.7563 41.3195C14.5819 36.9845 19.0444 34.5001 24 34.5001C28.9556 34.5001 33.4181 36.9845 36.2438 41.3195C36.4638 41.6465 36.8036 41.8737 37.1898 41.9522C37.5761 42.0306 37.9776 41.9538 38.3077 41.7385C38.6378 41.5232 38.8699 41.1866 38.9539 40.8016C39.0378 40.4165 38.9668 40.0139 38.7562 39.6807C36.6225 36.407 33.6937 34.0126 30.33 32.6889C33.0282 31.0114 34.951 28.3324 35.6768 25.2393C36.4027 22.1462 35.8722 18.8915 34.2019 16.1889L42.4744 13.4326C42.7731 13.3331 43.033 13.1421 43.2171 12.8867C43.4012 12.6313 43.5003 12.3244 43.5003 12.0095C43.5003 11.6946 43.4012 11.3877 43.2171 11.1323C43.033 10.8769 42.7731 10.6859 42.4744 10.5864V10.577ZM33 22.5001C33.0004 23.923 32.6634 25.3256 32.0168 26.5931C31.3701 27.8605 30.4322 28.9565 29.2799 29.7912C28.1276 30.6259 26.7938 31.1756 25.388 31.395C23.9821 31.6144 22.5443 31.4974 21.1925 31.0536C19.8406 30.6097 18.6133 29.8516 17.6111 28.8416C16.609 27.8315 15.8606 26.5983 15.4273 25.243C14.9941 23.8877 14.8884 22.449 15.1188 21.0449C15.3493 19.6409 15.9094 18.3114 16.7531 17.1657L23.5256 19.4157C23.8335 19.5184 24.1665 19.5184 24.4744 19.4157L31.2469 17.1657C32.3864 18.7108 33.0008 20.5803 33 22.5001ZM24 16.4195L10.7437 12.0001L24 7.58074L37.2562 12.0001L24 16.4195Z" fill="#00473E"/>
</svg>
