<svg width="24" height="24" viewBox="0 0 24 24" fill="none" xmlns="http://www.w3.org/2000/svg">
<path d="M10.4375 6.0625V6.375H13.5625V6.0625C13.5625 5.6481 13.3979 5.25067 13.1049 4.95765C12.8118 4.66462 12.4144 4.5 12 4.5C11.5856 4.5 11.1882 4.66462 10.8951 4.95765C10.6021 5.25067 10.4375 5.6481 10.4375 6.0625ZM9.1875 6.375V6.0625C9.1875 5.31658 9.48382 4.60121 10.0113 4.07376C10.5387 3.54632 11.2541 3.25 12 3.25C12.7459 3.25 13.4613 3.54632 13.9887 4.07376C14.5162 4.60121 14.8125 5.31658 14.8125 6.0625V6.375H19.5C19.6658 6.375 19.8247 6.44085 19.9419 6.55806C20.0592 6.67527 20.125 6.83424 20.125 7C20.125 7.16576 20.0592 7.32473 19.9419 7.44194C19.8247 7.55915 19.6658 7.625 19.5 7.625H18.5575L17.375 17.98C17.2878 18.7426 16.923 19.4465 16.3501 19.9573C15.7772 20.4682 15.0363 20.7504 14.2687 20.75H9.73125C8.96366 20.7504 8.22279 20.4682 7.64991 19.9573C7.07702 19.4465 6.7122 18.7426 6.625 17.98L5.4425 7.625H4.5C4.33424 7.625 4.17527 7.55915 4.05806 7.44194C3.94085 7.32473 3.875 7.16576 3.875 7C3.875 6.83424 3.94085 6.67527 4.05806 6.55806C4.17527 6.44085 4.33424 6.375 4.5 6.375H9.1875ZM10.75 10.4375C10.75 10.2717 10.6842 10.1128 10.5669 9.99556C10.4497 9.87835 10.2908 9.8125 10.125 9.8125C9.95924 9.8125 9.80027 9.87835 9.68306 9.99556C9.56585 10.1128 9.5 10.2717 9.5 10.4375V16.6875C9.5 16.8533 9.56585 17.0122 9.68306 17.1294C9.80027 17.2467 9.95924 17.3125 10.125 17.3125C10.2908 17.3125 10.4497 17.2467 10.5669 17.1294C10.6842 17.0122 10.75 16.8533 10.75 16.6875V10.4375ZM13.875 9.8125C13.7092 9.8125 13.5503 9.87835 13.4331 9.99556C13.3158 10.1128 13.25 10.2717 13.25 10.4375V16.6875C13.25 16.8533 13.3158 17.0122 13.4331 17.1294C13.5503 17.2467 13.7092 17.3125 13.875 17.3125C14.0408 17.3125 14.1997 17.2467 14.3169 17.1294C14.4342 17.0122 14.5 16.8533 14.5 16.6875V10.4375C14.5 10.2717 14.4342 10.1128 14.3169 9.99556C14.1997 9.87835 14.0408 9.8125 13.875 9.8125Z" fill="#EC1B22"/>
</svg>
